<?xml version="1.0" encoding="UTF-8"?>
<svg xmlns="http://www.w3.org/2000/svg" viewBox="0 0 2048 2048">
  <title>pacman-right (U+F0BAF) — extracted from MesloLGS NF Regular</title>
  <g transform="translate(0,2048) scale(1,-1)">
    <path d="M698 709 1248 159Q1099 9 898.5 -43.5Q698 -96 497.5 -43.5Q297 9 147.5 158.5Q-2 308 -55.0 508.5Q-108 709 -55.0 909.5Q-2 1110 147.5 1259.5Q297 1409 497.5 1461.5Q698 1514 898.5 1461.5Q1099 1409 1248 1259ZM1241 866Q1179 866 1133.5 820.5Q1088 775 1088.0 709.0Q1088 643 1133.5 597.5Q1179 552 1242.5 552.0Q1306 552 1351.5 597.5Q1397 643 1397.0 709.0Q1397 775 1351.5 820.5Q1306 866 1241 866Z" fill="#000"/>
  </g>
</svg>
