<?xml version="1.0" encoding="UTF-8"?>
<svg xmlns="http://www.w3.org/2000/svg" viewBox="0 0 2048 2048">
  <title>pacman-left (U+F0BB0) — extracted from MesloLGS NF Regular</title>
  <g transform="translate(0,2048) scale(1,-1)">
    <path d="M536 709 -14 1259Q135 1409 335.5 1461.5Q536 1514 736.5 1461.5Q937 1409 1086.5 1259.5Q1236 1110 1289.0 909.5Q1342 709 1289.0 508.5Q1236 308 1086.5 158.5Q937 9 736.5 -43.5Q536 -96 335.5 -43.5Q135 9 -14 159ZM-7 866Q-72 866 -117.5 820.5Q-163 775 -163.0 709.0Q-163 643 -117.5 597.5Q-72 552 -8.5 552.0Q55 552 100.5 597.5Q146 643 146.0 709.0Q146 775 100.5 820.5Q55 866 -7 866Z" fill="#000"/>
  </g>
</svg>
